Coordinates
version=1
nRows=27
nColumns=12
inDegrees=yes

Units are S.I. units (second, meters, Newtons, ...)
Angles are in degrees

endheader
time	SC_y	SC_z	SC_x	AC_y	AC_z	AC_x	GH_y	GH_z	GH_yy	EL_x	PS_y
       0.0              -41.43          19.07          47.06          47.06          3.956         -7.859         -31.15          23.87         -88.23          31.86          97.45
   0.03478              -41.43          19.07          47.06          47.06          3.955         -7.856         -31.16          23.87         -88.24          31.86          97.46
   0.06956              -41.43          19.08          47.06          47.06          3.953         -7.853         -31.17          23.88         -88.25          31.85          97.46
    0.1043              -41.43          19.08          47.06          47.07          3.951         -7.851         -31.19          23.89         -88.26          31.85          97.47
    0.1391              -41.43          19.08          47.06          47.07          3.949         -7.848          -31.2           23.9         -88.27          31.85          97.48
    0.1739              -41.43          19.08          47.06          47.07          3.947         -7.844         -31.22           23.9         -88.28          31.84          97.49
    0.2087              -41.43          19.09          47.06          47.08          3.945         -7.841         -31.24          23.91         -88.29          31.84           97.5
    0.2435              -41.43          19.09          47.06          47.08          3.943         -7.837         -31.26          23.92          -88.3          31.84          97.51
    0.2782              -41.43          19.09          47.06          47.08           3.94         -7.833         -31.28          23.93         -88.32          31.83          97.52
     0.313              -41.43           19.1          47.06          47.09          3.937         -7.829          -31.3          23.94         -88.33          31.83          97.53
    0.3478              -41.43           19.1          47.06          47.09          3.934         -7.824         -31.33          23.96         -88.35          31.82          97.55
    0.3826              -41.42          19.11          47.06           47.1          3.931         -7.819         -31.35          23.97         -88.36          31.82          97.56
    0.4173              -41.42          19.11          47.06           47.1          3.928         -7.814         -31.38          23.98         -88.38          31.81          97.57
    0.4521              -41.42          19.12          47.06          47.11          3.924         -7.808         -31.41           24.0          -88.4           31.8          97.59
    0.4869              -41.42          19.12          47.06          47.12           3.92         -7.802         -31.44          24.01         -88.42           31.8          97.61
    0.5217              -41.42          19.13          47.06          47.12          3.916         -7.796         -31.48          24.03         -88.44          31.79          97.63
    0.5565              -41.42          19.13          47.06          47.13          3.911         -7.788         -31.51          24.05         -88.46          31.78          97.65
    0.5912              -41.42          19.14          47.06          47.14          3.906          -7.78         -31.56          24.07         -88.49          31.77          97.67
     0.626              -41.42          19.15          47.06          47.15          3.901         -7.772          -31.6          24.09         -88.52          31.76          97.69
    0.6608              -41.42          19.16          47.07          47.16          3.895         -7.762         -31.65          24.12         -88.55          31.75          97.72
    0.6956              -41.42          19.17          47.07          47.17          3.888         -7.752         -31.71          24.14         -88.58          31.74          97.75
    0.7304              -41.42          19.18          47.07          47.18          3.881          -7.74         -31.77          24.17         -88.62          31.73          97.78
    0.7651              -41.42          19.19          47.07          47.19          3.873         -7.728         -31.83          24.21         -88.66          31.71          97.81
    0.7999              -41.41           19.2          47.07          47.21          3.864         -7.713         -31.91          24.24         -88.71           31.7          97.85
    0.8347              -41.41          19.21          47.07          47.22          3.854         -7.698         -31.99          24.28         -88.76          31.68           97.9
    0.8695              -41.41          19.23          47.07          47.24          3.843          -7.68         -32.08          24.33         -88.82          31.66          97.94
    0.9042              -41.41          19.24          47.07          47.26           3.83         -7.661         -32.18          24.38         -88.88          31.64           98.0
